<svg width="55" height="78" viewBox="0 0 55 78" fill="none" xmlns="http://www.w3.org/2000/svg">
<circle cx="27.5" cy="27.5" r="24" fill="#356DFA" stroke="#356DFA"/>
<circle cx="27.5" cy="27.5" r="26.75" stroke="#356DFA" stroke-width="1.5"/>
<path fill-rule="evenodd" clip-rule="evenodd" d="M24.3403 18.2688C24.1409 18.4403 24.027 18.6624 24.0211 18.891C24.016 19.0865 24.4192 20.5594 24.917 22.1639C25.4149 23.7684 25.8222 25.218 25.8222 25.3851C25.8222 26.0118 25.6399 26.0613 23.3345 26.0613C22.1713 26.0613 21.1361 26.0295 21.0344 25.9904C20.9327 25.9514 20.5756 25.5499 20.2409 25.0985C19.5848 24.2135 19.3707 24.0465 18.8913 24.0465C18.4905 24.0465 18 24.5393 18 24.9419C18 25.1145 18.1615 25.8102 18.359 26.4881L18.7181 27.7206L18.359 28.9531C18.1615 29.631 18 30.3267 18 30.4993C18 30.9019 18.4905 31.3947 18.8913 31.3947C19.3707 31.3947 19.5848 31.2277 20.2409 30.3427C20.5756 29.8913 20.9327 29.4899 21.0344 29.4509C21.3569 29.3271 25.3498 29.3724 25.593 29.5025C25.9569 29.6974 25.8814 30.1672 25.0623 32.802C23.8714 36.6327 23.9288 36.3904 24.1114 36.8248C24.3821 37.4686 25.4432 37.6658 25.9814 37.1725C26.1413 37.0257 27.2723 35.2791 28.4945 33.291C29.7167 31.3028 30.7991 29.6096 30.8996 29.528C31.0342 29.419 31.8125 29.3799 33.8508 29.3799C35.9975 29.3799 36.6911 29.3424 36.9393 29.2133C38.1015 28.6087 38.2497 27.1188 37.2233 26.3576C36.9291 26.1395 36.6654 26.1159 33.9066 26.0613C31.9748 26.0232 30.8794 25.9571 30.8251 25.8754C30.7787 25.8057 29.7079 24.0843 28.4454 22.0501C27.1829 20.016 26.0377 18.273 25.9004 18.1769C25.5138 17.9061 24.7066 17.9536 24.3403 18.2688Z" fill="white"/>
<path d="M11.9588 75V66.2727H17.3707V67.4062H13.2756V70.0653H16.983V71.1946H13.2756V75H11.9588ZM20.1619 66.2727V75H18.8878V66.2727H20.1619ZM21.8761 75V68.4545H23.1502V75H21.8761ZM22.5195 67.4446C22.2979 67.4446 22.1076 67.3707 21.9485 67.223C21.7923 67.0724 21.7141 66.8935 21.7141 66.6861C21.7141 66.4759 21.7923 66.2969 21.9485 66.1491C22.1076 65.9986 22.2979 65.9233 22.5195 65.9233C22.7411 65.9233 22.93 65.9986 23.0863 66.1491C23.2454 66.2969 23.3249 66.4759 23.3249 66.6861C23.3249 66.8935 23.2454 67.0724 23.0863 67.223C22.93 67.3707 22.7411 67.4446 22.5195 67.4446ZM27.6087 77.5909C27.0888 77.5909 26.6413 77.5227 26.2663 77.3864C25.8942 77.25 25.5902 77.0696 25.3544 76.8452C25.1186 76.6207 24.9425 76.375 24.826 76.108L25.9212 75.6562C25.9979 75.7812 26.1001 75.9134 26.228 76.0526C26.3587 76.1946 26.5348 76.3153 26.7564 76.4148C26.9808 76.5142 27.2692 76.5639 27.6214 76.5639C28.1044 76.5639 28.5036 76.446 28.8189 76.2102C29.1342 75.9773 29.2919 75.6051 29.2919 75.0938V73.8068H29.2109C29.1342 73.946 29.0234 74.1009 28.8786 74.2713C28.7365 74.4418 28.5405 74.5895 28.2905 74.7145C28.0405 74.8395 27.7152 74.902 27.3146 74.902C26.7976 74.902 26.3317 74.7812 25.9169 74.5398C25.505 74.2955 25.1783 73.9361 24.9368 73.4616C24.6982 72.9844 24.5788 72.3977 24.5788 71.7017C24.5788 71.0057 24.6967 70.4091 24.9325 69.9119C25.1712 69.4148 25.4979 69.0341 25.9126 68.7699C26.3274 68.5028 26.7976 68.3693 27.3232 68.3693C27.7294 68.3693 28.0575 68.4375 28.3075 68.5739C28.5575 68.7074 28.7521 68.8636 28.8913 69.0426C29.0334 69.2216 29.1428 69.3793 29.2195 69.5156H29.3132V68.4545H30.5618V75.1449C30.5618 75.7074 30.4311 76.169 30.1697 76.5298C29.9084 76.8906 29.5547 77.1577 29.1087 77.331C28.6655 77.5043 28.1655 77.5909 27.6087 77.5909ZM27.5959 73.8452C27.9624 73.8452 28.272 73.7599 28.5249 73.5895C28.7805 73.4162 28.9737 73.169 29.1044 72.848C29.2379 72.5241 29.3047 72.1364 29.3047 71.6847C29.3047 71.2443 29.2393 70.8565 29.1087 70.5213C28.978 70.1861 28.7862 69.9247 28.5334 69.7372C28.2805 69.5469 27.968 69.4517 27.5959 69.4517C27.2124 69.4517 26.8928 69.5511 26.6371 69.75C26.3814 69.946 26.1882 70.2131 26.0575 70.5511C25.9297 70.8892 25.8658 71.267 25.8658 71.6847C25.8658 72.1136 25.9311 72.4901 26.0618 72.8139C26.1925 73.1378 26.3857 73.3906 26.6413 73.5724C26.8999 73.7543 27.218 73.8452 27.5959 73.8452ZM33.5447 71.1136V75H32.2706V66.2727H33.5277V69.5199H33.6087C33.7621 69.1676 33.9964 68.8878 34.3118 68.6804C34.6271 68.473 35.0391 68.3693 35.5476 68.3693C35.9964 68.3693 36.3885 68.4616 36.7237 68.6463C37.0618 68.831 37.3232 69.1065 37.5078 69.473C37.6953 69.8366 37.7891 70.2912 37.7891 70.8366V75H36.5149V70.9901C36.5149 70.5099 36.3913 70.1378 36.1442 69.8736C35.897 69.6065 35.5533 69.473 35.1129 69.473C34.8118 69.473 34.5419 69.5369 34.3033 69.6648C34.0675 69.7926 33.8814 69.9801 33.745 70.2273C33.6115 70.4716 33.5447 70.767 33.5447 71.1136ZM42.5447 68.4545V69.4773H38.9695V68.4545H42.5447ZM39.9283 66.8864H41.2024V73.0781C41.2024 73.3253 41.2393 73.5114 41.3132 73.6364C41.3871 73.7585 41.4822 73.8423 41.5987 73.8878C41.718 73.9304 41.8473 73.9517 41.9865 73.9517C42.0888 73.9517 42.1783 73.9446 42.255 73.9304C42.3317 73.9162 42.3913 73.9048 42.4339 73.8963L42.6641 74.9489C42.5902 74.9773 42.4851 75.0057 42.3487 75.0341C42.2124 75.0653 42.0419 75.0824 41.8374 75.0852C41.5021 75.0909 41.1896 75.0312 40.8999 74.9062C40.6101 74.7812 40.3757 74.5881 40.1967 74.3267C40.0178 74.0653 39.9283 73.7372 39.9283 73.3423V66.8864Z" fill="black"/>
</svg>
